<?xml version="1.0" encoding="UTF-8"?>
<svg xmlns="http://www.w3.org/2000/svg" viewBox="0 0 1280 480" role="img" aria-labelledby="title desc">
  <title id="title">Claude Code for Social Scientists — Sosyal Bilimciler İçin Claude Code Rehberi</title>
  <desc id="desc">A bilingual open-source guide. Apache 2.0 plus CC-BY-NC-SA 4.0 dual licence. Author Onour Impram, ORCID 0000-0003-1076-3928. Zenodo concept DOI 10.5281/zenodo.20289687.</desc>

  <defs>
    <linearGradient id="bgGrad" x1="0" y1="0" x2="1" y2="1">
      <stop offset="0%" stop-color="#0F4C5C"/>
      <stop offset="55%" stop-color="#155F73"/>
      <stop offset="100%" stop-color="#1B7B91"/>
    </linearGradient>
    <pattern id="dots" x="0" y="0" width="32" height="32" patternUnits="userSpaceOnUse">
      <circle cx="2" cy="2" r="1.1" fill="#FFFFFF" fill-opacity="0.06"/>
    </pattern>
    <linearGradient id="accentGrad" x1="0" y1="0" x2="1" y2="0">
      <stop offset="0%" stop-color="#E2B85A"/>
      <stop offset="100%" stop-color="#F4D58A"/>
    </linearGradient>
  </defs>

  <rect width="1280" height="480" fill="url(#bgGrad)"/>
  <rect width="1280" height="480" fill="url(#dots)"/>

  <g transform="translate(80,128)" opacity="0.18" fill="none" stroke="#FFFFFF" stroke-width="3" stroke-linecap="round" stroke-linejoin="round">
    <path d="M0,40 L0,180 Q40,160 88,180 L88,40 Q40,20 0,40 Z"/>
    <path d="M88,40 L88,180 Q136,160 176,180 L176,40 Q136,20 88,40 Z"/>
    <line x1="22" y1="78" x2="66" y2="78"/>
    <line x1="22" y1="100" x2="66" y2="100"/>
    <line x1="22" y1="122" x2="56" y2="122"/>
    <line x1="110" y1="78" x2="154" y2="78"/>
    <line x1="110" y1="100" x2="154" y2="100"/>
    <line x1="110" y1="122" x2="144" y2="122"/>
  </g>

  <g transform="translate(1024,128)" opacity="0.22" fill="none" stroke="#FFFFFF" stroke-width="6" stroke-linecap="round">
    <path d="M40,0 Q10,30 10,100 Q10,170 40,200"/>
    <path d="M136,0 Q166,30 166,100 Q166,170 136,200"/>
    <text x="88" y="120" font-family="ui-monospace,SFMono-Regular,Menlo,Consolas,monospace" font-size="64" fill="#FFFFFF" text-anchor="middle" font-weight="700" opacity="0.6">/&gt;</text>
  </g>

  <rect x="64" y="362" width="120" height="3" fill="url(#accentGrad)" rx="1"/>

  <text x="64" y="220" font-family="Georgia, 'Times New Roman', serif" font-size="72" fill="#FFFFFF" font-weight="700" letter-spacing="-0.5">
    Claude Code for Social Scientists
  </text>

  <text x="64" y="276" font-family="Georgia, 'Times New Roman', serif" font-size="40" fill="#BCE0E8" font-style="italic" font-weight="400">
    Sosyal Bilimciler İçin Claude Code Rehberi
  </text>

  <text x="64" y="408" font-family="ui-sans-serif, -apple-system, 'Segoe UI', Roboto, sans-serif" font-size="20" fill="#FFFFFF" opacity="0.9">
    Onour Impram  ·  ORCID 0000-0003-1076-3928  ·  DOI 10.5281/zenodo.20289687
  </text>

  <text x="64" y="436" font-family="ui-sans-serif, -apple-system, 'Segoe UI', Roboto, sans-serif" font-size="16" fill="#BCE0E8" opacity="0.85">
    Apache 2.0 (code)  ·  CC-BY-NC-SA 4.0 (content)  ·  v0.2.0
  </text>
</svg>
